<svg width="32" height="32" viewBox="0 0 32 32" fill="none" xmlns="http://www.w3.org/2000/svg">
<path d="M17.6667 15H14V11.6666H17.6667C17.9319 11.6666 18.1862 11.772 18.3738 11.9595C18.5613 12.1471 18.6667 12.4014 18.6667 12.6666V14C18.6667 14.2652 18.5613 14.5195 18.3738 14.7071C18.1862 14.8946 17.9319 15 17.6667 15Z" fill="#FBF8CC"/>
<path d="M10.716 3.21062C11.0979 3.06085 11.506 2.98921 11.916 2.99995H20.084C20.4867 2.99995 20.8867 3.04795 21.284 3.21062C21.6813 3.37329 22.004 3.62395 22.3 3.91729L28.0827 9.69995C28.376 9.99462 28.6267 10.3173 28.7893 10.716C28.9533 11.1133 29 11.5133 29 11.916V20.084C29 20.5013 28.948 20.9053 28.7827 21.3026C28.6184 21.6785 28.3804 22.0177 28.0827 22.3L22.3 28.0826C22.0129 28.3848 21.6672 28.6252 21.284 28.7893C20.9021 28.9391 20.4941 29.0107 20.084 29H11.916C11.4987 29 11.0947 28.948 10.6973 28.7826C10.3214 28.6183 9.98229 28.3803 9.70001 28.0826L3.91735 22.3C3.61519 22.0128 3.37474 21.6671 3.21068 21.284C3.06091 20.9021 2.98927 20.494 3.00001 20.084V11.916C3.00001 11.4986 3.05201 11.0946 3.21735 10.6973C3.38162 10.3214 3.61965 9.98223 3.91735 9.69995L9.70001 3.91729C9.99468 3.62395 10.3173 3.37329 10.716 3.21062ZM13.6667 9.66662C12.7467 9.66662 12 10.4133 12 11.3333V21.3333C12 21.5985 12.1054 21.8529 12.2929 22.0404C12.4804 22.2279 12.7348 22.3333 13 22.3333C13.2652 22.3333 13.5196 22.2279 13.7071 22.0404C13.8947 21.8529 14 21.5985 14 21.3333V17H17.6667C18.4623 17 19.2254 16.6839 19.788 16.1213C20.3506 15.5587 20.6667 14.7956 20.6667 14V12.6666C20.6667 11.871 20.3506 11.1079 19.788 10.5453C19.2254 9.98269 18.4623 9.66662 17.6667 9.66662H13.6667Z" fill="#FBF8CC"/>
</svg>
