<svg width="164" height="68" viewBox="0 0 164 68" fill="none" xmlns="http://www.w3.org/2000/svg">
<rect x="6" y="7" width="158" height="61" rx="6" fill="#F5EE84"/>
<rect x="0.5" y="0.5" width="157" height="60" rx="5.5" stroke="#474306"/>
<path d="M38.86 31.02C38.86 29.66 39.1667 28.44 39.78 27.36C40.3933 26.2667 41.2267 25.4133 42.28 24.8C43.3467 24.1867 44.5267 23.88 45.82 23.88C47.34 23.88 48.6667 24.2467 49.8 24.98C50.9333 25.7133 51.76 26.7533 52.28 28.1H50.1C49.7133 27.26 49.1533 26.6133 48.42 26.16C47.7 25.7067 46.8333 25.48 45.82 25.48C44.8467 25.48 43.9733 25.7067 43.2 26.16C42.4267 26.6133 41.82 27.26 41.38 28.1C40.94 28.9267 40.72 29.9 40.72 31.02C40.72 32.1267 40.94 33.1 41.38 33.94C41.82 34.7667 42.4267 35.4067 43.2 35.86C43.9733 36.3133 44.8467 36.54 45.82 36.54C46.8333 36.54 47.7 36.32 48.42 35.88C49.1533 35.4267 49.7133 34.78 50.1 33.94H52.28C51.76 35.2733 50.9333 36.3067 49.8 37.04C48.6667 37.76 47.34 38.12 45.82 38.12C44.5267 38.12 43.3467 37.82 42.28 37.22C41.2267 36.6067 40.3933 35.76 39.78 34.68C39.1667 33.6 38.86 32.38 38.86 31.02ZM64.7092 27.04V38H62.8892V36.38C62.5426 36.94 62.0559 37.38 61.4292 37.7C60.8159 38.0067 60.1359 38.16 59.3892 38.16C58.5359 38.16 57.7692 37.9867 57.0892 37.64C56.4092 37.28 55.8692 36.7467 55.4692 36.04C55.0826 35.3333 54.8892 34.4733 54.8892 33.46V27.04H56.6892V33.22C56.6892 34.3 56.9626 35.1333 57.5092 35.72C58.0559 36.2933 58.8026 36.58 59.7492 36.58C60.7226 36.58 61.4892 36.28 62.0492 35.68C62.6092 35.08 62.8892 34.2067 62.8892 33.06V27.04H64.7092ZM69.6022 28.82C69.9222 28.1933 70.3755 27.7067 70.9622 27.36C71.5622 27.0133 72.2889 26.84 73.1422 26.84V28.72H72.6622C70.6222 28.72 69.6022 29.8267 69.6022 32.04V38H67.7822V27.04H69.6022V28.82ZM77.0631 28.82C77.3831 28.1933 77.8365 27.7067 78.4231 27.36C79.0231 27.0133 79.7498 26.84 80.6031 26.84V28.72H80.1231C78.0831 28.72 77.0631 29.8267 77.0631 32.04V38H75.2431V27.04H77.0631V28.82ZM84.5241 27.04V38H82.7041V27.04H84.5241ZM85.5641 23.94L81.3041 26.22V24.86L85.5641 22.36V23.94ZM86.9459 32.5C86.9459 31.3667 87.1726 30.38 87.6259 29.54C88.0793 28.6867 88.7059 28.0267 89.5059 27.56C90.3193 27.0933 91.2459 26.86 92.2859 26.86C93.6326 26.86 94.7393 27.1867 95.6059 27.84C96.4859 28.4933 97.0659 29.4 97.3459 30.56H95.3859C95.1993 29.8933 94.8326 29.3667 94.2859 28.98C93.7526 28.5933 93.0859 28.4 92.2859 28.4C91.2459 28.4 90.4059 28.76 89.7659 29.48C89.1259 30.1867 88.8059 31.1933 88.8059 32.5C88.8059 33.82 89.1259 34.84 89.7659 35.56C90.4059 36.28 91.2459 36.64 92.2859 36.64C93.0859 36.64 93.7526 36.4533 94.2859 36.08C94.8193 35.7067 95.1859 35.1733 95.3859 34.48H97.3459C97.0526 35.6 96.4659 36.5 95.5859 37.18C94.7059 37.8467 93.6059 38.18 92.2859 38.18C91.2459 38.18 90.3193 37.9467 89.5059 37.48C88.7059 37.0133 88.0793 36.3533 87.6259 35.5C87.1726 34.6467 86.9459 33.6467 86.9459 32.5ZM109.494 27.04V38H107.674V36.38C107.328 36.94 106.841 37.38 106.214 37.7C105.601 38.0067 104.921 38.16 104.174 38.16C103.321 38.16 102.554 37.9867 101.874 37.64C101.194 37.28 100.654 36.7467 100.254 36.04C99.8677 35.3333 99.6744 34.4733 99.6744 33.46V27.04H101.474V33.22C101.474 34.3 101.748 35.1333 102.294 35.72C102.841 36.2933 103.588 36.58 104.534 36.58C105.508 36.58 106.274 36.28 106.834 35.68C107.394 35.08 107.674 34.2067 107.674 33.06V27.04H109.494ZM114.387 23.2V38H112.567V23.2H114.387ZM122.269 38.18C121.243 38.18 120.309 37.9467 119.469 37.48C118.643 37.0133 117.989 36.3533 117.509 35.5C117.043 34.6333 116.809 33.6333 116.809 32.5C116.809 31.38 117.049 30.3933 117.529 29.54C118.023 28.6733 118.689 28.0133 119.529 27.56C120.369 27.0933 121.309 26.86 122.349 26.86C123.389 26.86 124.329 27.0933 125.169 27.56C126.009 28.0133 126.669 28.6667 127.149 29.52C127.643 30.3733 127.889 31.3667 127.889 32.5C127.889 33.6333 127.636 34.6333 127.129 35.5C126.636 36.3533 125.963 37.0133 125.109 37.48C124.256 37.9467 123.309 38.18 122.269 38.18ZM122.269 36.58C122.923 36.58 123.536 36.4267 124.109 36.12C124.683 35.8133 125.143 35.3533 125.489 34.74C125.849 34.1267 126.029 33.38 126.029 32.5C126.029 31.62 125.856 30.8733 125.509 30.26C125.163 29.6467 124.709 29.1933 124.149 28.9C123.589 28.5933 122.983 28.44 122.329 28.44C121.663 28.44 121.049 28.5933 120.489 28.9C119.943 29.1933 119.503 29.6467 119.169 30.26C118.836 30.8733 118.669 31.62 118.669 32.5C118.669 33.3933 118.829 34.1467 119.149 34.76C119.483 35.3733 119.923 35.8333 120.469 36.14C121.016 36.4333 121.616 36.58 122.269 36.58Z" fill="#474306"/>
</svg>
